<svg width="15" height="14" viewBox="0 0 15 14" fill="none" xmlns="http://www.w3.org/2000/svg">
<path d="M5.00091 8.00027L5.70591 8.70527L7.00091 7.41527V13.5003H8.00091V7.41527L9.29591 8.70527L10.0009 8.00027L7.50091 5.50027L5.00091 8.00027Z" fill="white"/>
<path d="M11.2509 10.0003H11.0009V9.00027H11.2509C11.8476 9.02414 12.4294 8.80998 12.8683 8.4049C13.3071 7.99983 13.567 7.43701 13.5909 6.84027C13.6148 6.24354 13.4006 5.66176 12.9955 5.22292C12.5905 4.78409 12.0276 4.52414 11.4309 4.50027H11.0009L10.9509 4.09027C10.84 3.2485 10.4268 2.47575 9.78845 1.91597C9.15006 1.35618 8.32996 1.04755 7.48091 1.04755C6.63185 1.04755 5.81175 1.35618 5.17336 1.91597C4.53497 2.47575 4.12183 3.2485 4.01091 4.09027L4.00091 4.50027H3.57091C2.97417 4.52414 2.41135 4.78409 2.00628 5.22292C1.6012 5.66176 1.38704 6.24354 1.41091 6.84027C1.43478 7.43701 1.69472 7.99983 2.13356 8.4049C2.57239 8.80998 3.15417 9.02414 3.75091 9.00027H4.00091V10.0003H3.75091C2.94911 9.9952 2.17749 9.6939 1.5844 9.15432C0.991308 8.61474 0.618614 7.87496 0.537971 7.07721C0.457328 6.27946 0.674428 5.48006 1.14753 4.8327C1.62064 4.18534 2.31635 3.73572 3.10091 3.57027C3.31676 2.56353 3.87132 1.66126 4.67206 1.01401C5.4728 0.366756 6.47128 0.0136719 7.50091 0.0136719C8.53053 0.0136719 9.52901 0.366756 10.3297 1.01401C11.1305 1.66126 11.6851 2.56353 11.9009 3.57027C12.6855 3.73572 13.3812 4.18534 13.8543 4.8327C14.3274 5.48006 14.5445 6.27946 14.4638 7.07721C14.3832 7.87496 14.0105 8.61474 13.4174 9.15432C12.8243 9.6939 12.0527 9.9952 11.2509 10.0003Z" fill="white"/>
</svg>
